<mxfile host="app.diagrams.net" modified="2022-05-26T01:49:57.512Z" agent="5.0 (Windows NT 10.0; Win64; x64) AppleWebKit/537.36 (KHTML, like Gecko) Chrome/101.0.4951.67 Safari/537.36" etag="_bFenVAbcXTD63rMAmMX" version="18.1.2" type="github">
  <diagram id="C5RBs43oDa-KdzZeNtuy" name="Page-1">
    <mxGraphModel dx="809" dy="607" grid="1" gridSize="10" guides="1" tooltips="1" connect="1" arrows="1" fold="1" page="1" pageScale="1" pageWidth="827" pageHeight="1169" math="0" shadow="0">
      <root>
        <mxCell id="WIyWlLk6GJQsqaUBKTNV-0" />
        <mxCell id="WIyWlLk6GJQsqaUBKTNV-1" parent="WIyWlLk6GJQsqaUBKTNV-0" />
        <mxCell id="WIyWlLk6GJQsqaUBKTNV-3" value="initialize" style="rounded=1;whiteSpace=wrap;html=1;fontSize=12;glass=0;strokeWidth=1;shadow=0;arcSize=18;" parent="WIyWlLk6GJQsqaUBKTNV-1" vertex="1">
          <mxGeometry x="130" y="20" width="110" height="40" as="geometry" />
        </mxCell>
        <mxCell id="p60gBMchG8G6uaJim4We-8" style="edgeStyle=orthogonalEdgeStyle;rounded=0;orthogonalLoop=1;jettySize=auto;html=1;endArrow=none;endFill=0;entryX=1;entryY=0.5;entryDx=0;entryDy=0;startArrow=classic;startFill=1;" edge="1" parent="WIyWlLk6GJQsqaUBKTNV-1" source="p60gBMchG8G6uaJim4We-0" target="WIyWlLk6GJQsqaUBKTNV-3">
          <mxGeometry relative="1" as="geometry">
            <mxPoint x="290" y="120" as="targetPoint" />
            <Array as="points">
              <mxPoint x="290" y="25" />
              <mxPoint x="290" y="40" />
            </Array>
          </mxGeometry>
        </mxCell>
        <mxCell id="p60gBMchG8G6uaJim4We-0" value="Square" style="rounded=0;whiteSpace=wrap;html=1;" vertex="1" parent="WIyWlLk6GJQsqaUBKTNV-1">
          <mxGeometry x="350" y="10" width="64" height="30" as="geometry" />
        </mxCell>
        <mxCell id="p60gBMchG8G6uaJim4We-10" style="edgeStyle=orthogonalEdgeStyle;rounded=0;orthogonalLoop=1;jettySize=auto;html=1;startArrow=classic;startFill=1;endArrow=none;endFill=0;" edge="1" parent="WIyWlLk6GJQsqaUBKTNV-1" source="p60gBMchG8G6uaJim4We-1">
          <mxGeometry relative="1" as="geometry">
            <mxPoint x="290" y="100" as="targetPoint" />
          </mxGeometry>
        </mxCell>
        <mxCell id="p60gBMchG8G6uaJim4We-1" value="Triangle" style="rounded=0;whiteSpace=wrap;html=1;" vertex="1" parent="WIyWlLk6GJQsqaUBKTNV-1">
          <mxGeometry x="350" y="90" width="84" height="20" as="geometry" />
        </mxCell>
        <mxCell id="p60gBMchG8G6uaJim4We-9" style="edgeStyle=orthogonalEdgeStyle;rounded=0;orthogonalLoop=1;jettySize=auto;html=1;endArrow=none;endFill=0;startArrow=classic;startFill=1;" edge="1" parent="WIyWlLk6GJQsqaUBKTNV-1" source="p60gBMchG8G6uaJim4We-2">
          <mxGeometry relative="1" as="geometry">
            <mxPoint x="290" y="40" as="targetPoint" />
          </mxGeometry>
        </mxCell>
        <mxCell id="p60gBMchG8G6uaJim4We-2" value="Rectangle(height, width)" style="rounded=0;whiteSpace=wrap;html=1;" vertex="1" parent="WIyWlLk6GJQsqaUBKTNV-1">
          <mxGeometry x="350" y="50" width="160" height="30" as="geometry" />
        </mxCell>
        <mxCell id="p60gBMchG8G6uaJim4We-11" style="edgeStyle=orthogonalEdgeStyle;rounded=0;orthogonalLoop=1;jettySize=auto;html=1;exitX=0;exitY=0.5;exitDx=0;exitDy=0;endArrow=none;endFill=0;startArrow=classic;startFill=1;" edge="1" parent="WIyWlLk6GJQsqaUBKTNV-1" source="p60gBMchG8G6uaJim4We-3">
          <mxGeometry relative="1" as="geometry">
            <mxPoint x="290" y="60" as="targetPoint" />
          </mxGeometry>
        </mxCell>
        <mxCell id="p60gBMchG8G6uaJim4We-3" value="calculateScore&lt;br&gt;-returns score" style="rounded=0;whiteSpace=wrap;html=1;" vertex="1" parent="WIyWlLk6GJQsqaUBKTNV-1">
          <mxGeometry x="350" y="120" width="90" height="40" as="geometry" />
        </mxCell>
        <mxCell id="p60gBMchG8G6uaJim4We-18" value="" style="edgeStyle=orthogonalEdgeStyle;rounded=0;orthogonalLoop=1;jettySize=auto;html=1;startArrow=none;startFill=0;endArrow=classic;endFill=1;" edge="1" parent="WIyWlLk6GJQsqaUBKTNV-1" source="p60gBMchG8G6uaJim4We-12" target="p60gBMchG8G6uaJim4We-14">
          <mxGeometry relative="1" as="geometry" />
        </mxCell>
        <mxCell id="p60gBMchG8G6uaJim4We-19" value="" style="edgeStyle=orthogonalEdgeStyle;rounded=0;orthogonalLoop=1;jettySize=auto;html=1;startArrow=none;startFill=0;endArrow=classic;endFill=1;" edge="1" parent="WIyWlLk6GJQsqaUBKTNV-1" source="p60gBMchG8G6uaJim4We-12" target="p60gBMchG8G6uaJim4We-13">
          <mxGeometry relative="1" as="geometry">
            <Array as="points">
              <mxPoint x="65" y="215" />
            </Array>
          </mxGeometry>
        </mxCell>
        <mxCell id="p60gBMchG8G6uaJim4We-12" value="Start" style="ellipse;whiteSpace=wrap;html=1;" vertex="1" parent="WIyWlLk6GJQsqaUBKTNV-1">
          <mxGeometry x="120" y="200" width="80" height="30" as="geometry" />
        </mxCell>
        <mxCell id="p60gBMchG8G6uaJim4We-13" value="Exit" style="rounded=0;whiteSpace=wrap;html=1;" vertex="1" parent="WIyWlLk6GJQsqaUBKTNV-1">
          <mxGeometry x="30" y="205" width="50" height="20" as="geometry" />
        </mxCell>
        <mxCell id="p60gBMchG8G6uaJim4We-56" style="edgeStyle=orthogonalEdgeStyle;rounded=0;orthogonalLoop=1;jettySize=auto;html=1;startArrow=none;startFill=0;endArrow=classic;endFill=1;" edge="1" parent="WIyWlLk6GJQsqaUBKTNV-1" source="p60gBMchG8G6uaJim4We-14" target="p60gBMchG8G6uaJim4We-20">
          <mxGeometry relative="1" as="geometry" />
        </mxCell>
        <mxCell id="p60gBMchG8G6uaJim4We-14" value="Play" style="rounded=0;whiteSpace=wrap;html=1;" vertex="1" parent="WIyWlLk6GJQsqaUBKTNV-1">
          <mxGeometry x="170" y="300" width="50" height="20" as="geometry" />
        </mxCell>
        <mxCell id="p60gBMchG8G6uaJim4We-22" value="" style="edgeStyle=orthogonalEdgeStyle;rounded=0;orthogonalLoop=1;jettySize=auto;html=1;startArrow=none;startFill=0;endArrow=classic;endFill=1;" edge="1" parent="WIyWlLk6GJQsqaUBKTNV-1" source="p60gBMchG8G6uaJim4We-15" target="p60gBMchG8G6uaJim4We-21">
          <mxGeometry relative="1" as="geometry">
            <Array as="points">
              <mxPoint x="283" y="160" />
            </Array>
          </mxGeometry>
        </mxCell>
        <mxCell id="p60gBMchG8G6uaJim4We-15" value="Final Score" style="rounded=0;whiteSpace=wrap;html=1;" vertex="1" parent="WIyWlLk6GJQsqaUBKTNV-1">
          <mxGeometry x="250" y="205" width="66" height="20" as="geometry" />
        </mxCell>
        <mxCell id="p60gBMchG8G6uaJim4We-16" value="" style="endArrow=classic;html=1;rounded=0;entryX=0;entryY=0.5;entryDx=0;entryDy=0;" edge="1" parent="WIyWlLk6GJQsqaUBKTNV-1" target="p60gBMchG8G6uaJim4We-15">
          <mxGeometry width="50" height="50" relative="1" as="geometry">
            <mxPoint x="200" y="215" as="sourcePoint" />
            <mxPoint x="250" y="160" as="targetPoint" />
          </mxGeometry>
        </mxCell>
        <mxCell id="p60gBMchG8G6uaJim4We-60" style="edgeStyle=orthogonalEdgeStyle;rounded=0;orthogonalLoop=1;jettySize=auto;html=1;startArrow=none;startFill=0;endArrow=classic;endFill=1;" edge="1" parent="WIyWlLk6GJQsqaUBKTNV-1" source="p60gBMchG8G6uaJim4We-20" target="p60gBMchG8G6uaJim4We-28">
          <mxGeometry relative="1" as="geometry" />
        </mxCell>
        <mxCell id="p60gBMchG8G6uaJim4We-61" style="edgeStyle=orthogonalEdgeStyle;rounded=0;orthogonalLoop=1;jettySize=auto;html=1;startArrow=none;startFill=0;endArrow=classic;endFill=1;" edge="1" parent="WIyWlLk6GJQsqaUBKTNV-1" source="p60gBMchG8G6uaJim4We-20" target="p60gBMchG8G6uaJim4We-25">
          <mxGeometry relative="1" as="geometry" />
        </mxCell>
        <mxCell id="p60gBMchG8G6uaJim4We-63" style="edgeStyle=orthogonalEdgeStyle;rounded=0;orthogonalLoop=1;jettySize=auto;html=1;entryX=0.5;entryY=0;entryDx=0;entryDy=0;startArrow=none;startFill=0;endArrow=classic;endFill=1;" edge="1" parent="WIyWlLk6GJQsqaUBKTNV-1" source="p60gBMchG8G6uaJim4We-20" target="p60gBMchG8G6uaJim4We-26">
          <mxGeometry relative="1" as="geometry">
            <Array as="points">
              <mxPoint x="353" y="350" />
              <mxPoint x="475" y="350" />
            </Array>
          </mxGeometry>
        </mxCell>
        <mxCell id="p60gBMchG8G6uaJim4We-66" style="edgeStyle=orthogonalEdgeStyle;rounded=0;orthogonalLoop=1;jettySize=auto;html=1;startArrow=none;startFill=0;endArrow=classic;endFill=1;" edge="1" parent="WIyWlLk6GJQsqaUBKTNV-1" source="p60gBMchG8G6uaJim4We-20" target="p60gBMchG8G6uaJim4We-27">
          <mxGeometry relative="1" as="geometry">
            <Array as="points">
              <mxPoint x="353" y="350" />
              <mxPoint x="543" y="350" />
            </Array>
          </mxGeometry>
        </mxCell>
        <mxCell id="p60gBMchG8G6uaJim4We-20" value="guess shape" style="rounded=0;whiteSpace=wrap;html=1;" vertex="1" parent="WIyWlLk6GJQsqaUBKTNV-1">
          <mxGeometry x="318" y="290" width="70" height="40" as="geometry" />
        </mxCell>
        <mxCell id="p60gBMchG8G6uaJim4We-24" style="edgeStyle=orthogonalEdgeStyle;rounded=0;orthogonalLoop=1;jettySize=auto;html=1;entryX=0.5;entryY=0;entryDx=0;entryDy=0;startArrow=none;startFill=0;endArrow=classic;endFill=1;" edge="1" parent="WIyWlLk6GJQsqaUBKTNV-1" source="p60gBMchG8G6uaJim4We-21" target="p60gBMchG8G6uaJim4We-13">
          <mxGeometry relative="1" as="geometry" />
        </mxCell>
        <mxCell id="p60gBMchG8G6uaJim4We-21" value="displayScore" style="rounded=0;whiteSpace=wrap;html=1;" vertex="1" parent="WIyWlLk6GJQsqaUBKTNV-1">
          <mxGeometry x="135" y="140" width="85" height="40" as="geometry" />
        </mxCell>
        <mxCell id="p60gBMchG8G6uaJim4We-68" style="edgeStyle=orthogonalEdgeStyle;rounded=0;orthogonalLoop=1;jettySize=auto;html=1;entryX=1;entryY=0.5;entryDx=0;entryDy=0;startArrow=none;startFill=0;endArrow=classic;endFill=1;" edge="1" parent="WIyWlLk6GJQsqaUBKTNV-1" source="p60gBMchG8G6uaJim4We-25" target="p60gBMchG8G6uaJim4We-34">
          <mxGeometry relative="1" as="geometry">
            <Array as="points">
              <mxPoint x="320" y="455" />
            </Array>
          </mxGeometry>
        </mxCell>
        <mxCell id="p60gBMchG8G6uaJim4We-25" value="Square" style="rounded=0;whiteSpace=wrap;html=1;" vertex="1" parent="WIyWlLk6GJQsqaUBKTNV-1">
          <mxGeometry x="277" y="370" width="60" height="20" as="geometry" />
        </mxCell>
        <mxCell id="p60gBMchG8G6uaJim4We-70" style="edgeStyle=orthogonalEdgeStyle;rounded=0;orthogonalLoop=1;jettySize=auto;html=1;startArrow=none;startFill=0;endArrow=classic;endFill=1;" edge="1" parent="WIyWlLk6GJQsqaUBKTNV-1" source="p60gBMchG8G6uaJim4We-26">
          <mxGeometry relative="1" as="geometry">
            <mxPoint x="260" y="455" as="targetPoint" />
            <Array as="points">
              <mxPoint x="475" y="455" />
            </Array>
          </mxGeometry>
        </mxCell>
        <mxCell id="p60gBMchG8G6uaJim4We-26" value="Triangle" style="rounded=0;whiteSpace=wrap;html=1;" vertex="1" parent="WIyWlLk6GJQsqaUBKTNV-1">
          <mxGeometry x="450" y="375" width="50" height="20" as="geometry" />
        </mxCell>
        <mxCell id="p60gBMchG8G6uaJim4We-69" style="edgeStyle=orthogonalEdgeStyle;rounded=0;orthogonalLoop=1;jettySize=auto;html=1;startArrow=none;startFill=0;endArrow=classic;endFill=1;" edge="1" parent="WIyWlLk6GJQsqaUBKTNV-1" source="p60gBMchG8G6uaJim4We-28">
          <mxGeometry relative="1" as="geometry">
            <mxPoint x="250" y="455" as="targetPoint" />
            <Array as="points">
              <mxPoint x="382" y="455" />
            </Array>
          </mxGeometry>
        </mxCell>
        <mxCell id="p60gBMchG8G6uaJim4We-28" value="None of above" style="rounded=0;whiteSpace=wrap;html=1;" vertex="1" parent="WIyWlLk6GJQsqaUBKTNV-1">
          <mxGeometry x="350" y="370" width="90" height="30" as="geometry" />
        </mxCell>
        <mxCell id="p60gBMchG8G6uaJim4We-67" style="edgeStyle=orthogonalEdgeStyle;rounded=0;orthogonalLoop=1;jettySize=auto;html=1;startArrow=none;startFill=0;endArrow=classic;endFill=1;exitX=0;exitY=0;exitDx=0;exitDy=0;" edge="1" parent="WIyWlLk6GJQsqaUBKTNV-1" source="p60gBMchG8G6uaJim4We-34" target="p60gBMchG8G6uaJim4We-44">
          <mxGeometry relative="1" as="geometry">
            <mxPoint x="180" y="460" as="sourcePoint" />
          </mxGeometry>
        </mxCell>
        <mxCell id="p60gBMchG8G6uaJim4We-75" value="No" style="edgeLabel;html=1;align=center;verticalAlign=middle;resizable=0;points=[];" vertex="1" connectable="0" parent="p60gBMchG8G6uaJim4We-67">
          <mxGeometry x="0.2555" y="-2" relative="1" as="geometry">
            <mxPoint as="offset" />
          </mxGeometry>
        </mxCell>
        <mxCell id="p60gBMchG8G6uaJim4We-72" style="edgeStyle=orthogonalEdgeStyle;rounded=0;orthogonalLoop=1;jettySize=auto;html=1;exitX=1;exitY=1;exitDx=0;exitDy=0;entryX=0.5;entryY=0;entryDx=0;entryDy=0;startArrow=none;startFill=0;endArrow=classic;endFill=1;" edge="1" parent="WIyWlLk6GJQsqaUBKTNV-1" source="p60gBMchG8G6uaJim4We-34" target="p60gBMchG8G6uaJim4We-45">
          <mxGeometry relative="1" as="geometry">
            <Array as="points">
              <mxPoint x="215" y="480" />
              <mxPoint x="255" y="480" />
            </Array>
          </mxGeometry>
        </mxCell>
        <mxCell id="p60gBMchG8G6uaJim4We-74" value="Yes" style="edgeLabel;html=1;align=center;verticalAlign=middle;resizable=0;points=[];" vertex="1" connectable="0" parent="p60gBMchG8G6uaJim4We-72">
          <mxGeometry x="-0.0435" y="-3" relative="1" as="geometry">
            <mxPoint x="-12" y="-3" as="offset" />
          </mxGeometry>
        </mxCell>
        <mxCell id="p60gBMchG8G6uaJim4We-34" value="Guess correct?" style="rhombus;whiteSpace=wrap;html=1;" vertex="1" parent="WIyWlLk6GJQsqaUBKTNV-1">
          <mxGeometry x="155" y="430" width="80" height="50" as="geometry" />
        </mxCell>
        <mxCell id="p60gBMchG8G6uaJim4We-73" style="edgeStyle=orthogonalEdgeStyle;rounded=0;orthogonalLoop=1;jettySize=auto;html=1;exitX=0;exitY=0.5;exitDx=0;exitDy=0;entryX=0;entryY=1;entryDx=0;entryDy=0;startArrow=none;startFill=0;endArrow=classic;endFill=1;" edge="1" parent="WIyWlLk6GJQsqaUBKTNV-1" source="p60gBMchG8G6uaJim4We-44" target="p60gBMchG8G6uaJim4We-12">
          <mxGeometry relative="1" as="geometry" />
        </mxCell>
        <mxCell id="p60gBMchG8G6uaJim4We-44" value="Return Score" style="rounded=0;whiteSpace=wrap;html=1;" vertex="1" parent="WIyWlLk6GJQsqaUBKTNV-1">
          <mxGeometry x="70" y="520" width="73" height="20" as="geometry" />
        </mxCell>
        <mxCell id="p60gBMchG8G6uaJim4We-58" style="edgeStyle=orthogonalEdgeStyle;rounded=0;orthogonalLoop=1;jettySize=auto;html=1;entryX=1;entryY=0.5;entryDx=0;entryDy=0;startArrow=none;startFill=0;endArrow=classic;endFill=1;" edge="1" parent="WIyWlLk6GJQsqaUBKTNV-1" source="p60gBMchG8G6uaJim4We-45" target="p60gBMchG8G6uaJim4We-44">
          <mxGeometry relative="1" as="geometry" />
        </mxCell>
        <mxCell id="p60gBMchG8G6uaJim4We-45" value="Score+=10" style="rounded=0;whiteSpace=wrap;html=1;" vertex="1" parent="WIyWlLk6GJQsqaUBKTNV-1">
          <mxGeometry x="220" y="520" width="70" height="20" as="geometry" />
        </mxCell>
        <mxCell id="p60gBMchG8G6uaJim4We-71" style="edgeStyle=orthogonalEdgeStyle;rounded=0;orthogonalLoop=1;jettySize=auto;html=1;startArrow=none;startFill=0;endArrow=classic;endFill=1;" edge="1" parent="WIyWlLk6GJQsqaUBKTNV-1" source="p60gBMchG8G6uaJim4We-27">
          <mxGeometry relative="1" as="geometry">
            <mxPoint x="270" y="455" as="targetPoint" />
            <Array as="points">
              <mxPoint x="543" y="455" />
            </Array>
          </mxGeometry>
        </mxCell>
        <mxCell id="p60gBMchG8G6uaJim4We-27" value="Rectangle" style="rounded=0;whiteSpace=wrap;html=1;" vertex="1" parent="WIyWlLk6GJQsqaUBKTNV-1">
          <mxGeometry x="510" y="375" width="66" height="20" as="geometry" />
        </mxCell>
      </root>
    </mxGraphModel>
  </diagram>
</mxfile>
